<?xml version="1.0" standalone="no"?>
<!DOCTYPE svg PUBLIC "-//W3C//DTD SVG 20010904//EN"
 "http://www.w3.org/TR/2001/REC-SVG-20010904/DTD/svg10.dtd">
<svg version="1.0" xmlns="http://www.w3.org/2000/svg"
 width="512.000000pt" height="512.000000pt" viewBox="0 0 512.000000 512.000000"
 preserveAspectRatio="xMidYMid meet">

<g transform="translate(0.000000,512.000000) scale(0.100000,-0.100000)"
fill="#000000" stroke="none">
<path d="M977 4722 c-15 -17 -17 -63 -17 -455 0 -424 1 -438 20 -457 24 -24
49 -25 76 -6 18 14 19 32 22 451 2 382 1 441 -13 461 -19 29 -65 32 -88 6z"/>
<path d="M4055 4716 c-14 -20 -15 -79 -13 -461 3 -419 4 -437 22 -451 27 -19
52 -18 76 6 19 19 20 33 20 458 0 413 -1 440 -18 455 -27 25 -69 21 -87 -7z"/>
<path d="M1045 2457 c-64 -22 -105 -46 -158 -96 -60 -56 -133 -149 -151 -193
-23 -54 12 -99 64 -83 11 4 39 34 62 68 107 158 222 227 306 183 85 -45 128
-174 88 -269 -7 -18 -120 -187 -250 -375 -130 -188 -241 -354 -246 -368 -12
-31 9 -87 38 -103 14 -7 119 -11 301 -11 l281 0 17 26 c15 24 15 29 2 53 l-15
26 -242 3 c-133 1 -242 6 -242 10 0 4 102 153 225 331 137 198 231 344 242
375 25 72 23 187 -5 249 -62 139 -198 213 -317 174z"/>
<path d="M1940 2455 c-73 -20 -156 -79 -197 -139 -61 -89 -64 -115 -61 -498
l3 -343 27 -57 c35 -76 98 -142 167 -175 49 -25 67 -28 151 -28 84 0 102 3
152 28 72 35 134 97 167 167 l26 55 0 375 c0 371 0 376 -23 422 -77 156 -250
237 -412 193z m185 -124 c50 -22 96 -67 121 -118 18 -35 19 -64 19 -378 0
-332 -1 -341 -22 -382 -49 -92 -162 -146 -257 -124 -69 16 -122 55 -157 116
l-29 50 0 340 c0 310 2 344 19 381 21 46 83 102 132 120 50 18 128 16 174 -5z"/>
<path d="M3045 2461 c-88 -23 -199 -112 -280 -226 -56 -78 -63 -107 -36 -134
42 -42 62 -30 144 82 73 102 163 167 229 167 104 0 186 -147 148 -266 -7 -21
-119 -194 -250 -384 -130 -190 -243 -355 -249 -368 -17 -32 -5 -78 26 -102 24
-19 40 -20 308 -20 306 0 308 0 308 55 0 54 -6 55 -264 55 -132 0 -239 3 -239
8 0 4 101 153 225 332 136 197 231 345 242 375 22 64 21 166 -1 232 -20 61
-91 145 -146 173 -43 22 -122 32 -165 21z"/>
<path d="M3937 2428 c-17 -13 -317 -688 -317 -714 0 -7 9 -23 20 -34 19 -19
33 -20 259 -20 l240 0 3 -226 c3 -210 4 -227 22 -240 27 -19 60 -18 79 4 15
16 17 48 17 240 l0 222 48 0 c58 0 85 17 85 54 0 40 -24 58 -82 64 l-51 5 0
307 c0 289 -1 308 -19 324 -27 25 -72 17 -88 -14 -9 -18 -13 -104 -13 -322 l0
-298 -185 0 -184 0 18 43 c10 23 68 157 130 298 61 141 111 261 111 268 0 17
-38 51 -58 51 -10 0 -26 -6 -35 -12z"/>
</g>
</svg>
