<?xml version="1.0" standalone="no"?>
<!DOCTYPE svg PUBLIC "-//W3C//DTD SVG 20010904//EN"
 "http://www.w3.org/TR/2001/REC-SVG-20010904/DTD/svg10.dtd">
<svg version="1.0" xmlns="http://www.w3.org/2000/svg"
 width="945.000000pt" height="472.000000pt" viewBox="0 0 945.000000 472.000000"
 preserveAspectRatio="xMidYMid meet">

<g transform="translate(0.000000,472.000000) scale(0.100000,-0.100000)"
fill="#000000" stroke="none">
<path d="M3245 4231 c-3 -6 -21 -11 -38 -11 -18 0 -74 -14 -125 -30 -284 -91
-481 -272 -551 -506 -16 -55 -21 -98 -21 -188 0 -201 54 -350 170 -466 36 -36
76 -74 90 -85 l25 -20 -30 -3 c-16 -2 -65 -14 -107 -28 -99 -33 -197 -36 -234
-8 -27 20 -55 84 -94 212 -25 82 -68 145 -125 182 -107 69 -183 66 -350 -11
-40 -19 -75 -25 -175 -31 -131 -7 -182 -14 -215 -28 -11 -5 -40 -17 -65 -28
-97 -42 -185 -132 -224 -232 -10 -25 -22 -53 -27 -62 -10 -20 -12 -231 -2
-241 3 -4 14 -29 23 -55 40 -113 115 -199 227 -257 l58 -31 6 -95 c5 -96 13
-119 56 -177 34 -45 169 -135 192 -127 77 24 217 35 461 35 l266 0 69 37 69
36 65 -17 c69 -18 101 -43 101 -79 0 -23 48 -166 62 -184 6 -7 -9 -31 -44 -71
-185 -207 -212 -540 -62 -775 59 -92 114 -149 195 -203 121 -80 225 -120 376
-143 256 -39 539 38 710 194 63 58 183 210 183 232 0 5 9 18 19 27 18 16 24
16 58 5 53 -18 273 -18 338 0 57 16 141 56 167 78 15 13 24 14 60 4 194 -54
354 -61 509 -25 24 5 27 2 43 -51 22 -67 86 -166 129 -199 77 -58 109 -70 187
-71 65 0 84 4 142 33 99 48 181 114 268 216 67 79 85 94 131 110 30 10 94 45
144 78 l89 60 56 -30 c103 -56 182 -75 310 -75 118 1 193 14 290 52 30 11 61
21 67 21 7 0 38 -16 69 -36 51 -33 61 -36 103 -30 25 3 89 10 141 15 224 22
368 71 462 158 110 104 143 182 142 338 -1 61 -6 123 -13 139 -6 16 -16 90
-22 164 -11 153 -19 197 -45 265 -15 38 -16 50 -6 56 87 53 189 170 234 267
30 65 32 76 33 184 0 107 -2 119 -28 170 -16 30 -50 79 -75 108 -77 88 -74 81
-57 153 19 82 19 144 0 244 l-16 80 28 54 c54 108 39 241 -40 354 -74 106
-194 168 -325 168 -91 0 -157 -19 -232 -66 -84 -53 -134 -116 -174 -217 -13
-34 -26 -43 -112 -85 -87 -42 -99 -45 -118 -33 -48 31 -128 72 -158 81 -167
52 -361 51 -553 -2 -75 -20 -76 -19 -97 46 -47 148 -102 222 -208 280 -51 27
-62 30 -160 30 -98 0 -111 -3 -195 -37 l-90 -37 -55 16 c-144 39 -166 41 -237
17 -26 -9 -71 -32 -101 -50 -29 -19 -61 -34 -71 -34 -10 0 -52 16 -94 35 -63
29 -87 35 -143 35 -98 0 -222 -61 -320 -157 -77 -75 -109 -128 -133 -218 l-17
-60 -114 0 c-130 0 -120 -6 -155 105 -91 293 -290 457 -635 522 -80 15 -327
21 -335 9z m405 -236 c64 -18 74 -23 155 -61 249 -118 316 -482 122 -661 -40
-37 -114 -78 -174 -97 -28 -9 -29 -21 -2 -87 143 -364 395 -616 614 -613 46 0
82 10 150 38 144 60 195 76 246 76 81 0 118 -52 119 -165 0 -35 -7 -47 -47
-89 -59 -60 -129 -106 -208 -136 -85 -32 -268 -39 -367 -15 -203 49 -391 212
-542 468 -25 43 -46 80 -46 83 0 2 -13 33 -30 69 -16 36 -30 68 -30 71 0 3 -6
20 -14 37 -8 18 -31 83 -52 145 -36 107 -40 113 -64 110 -30 -4 -35 -30 -25
-126 l7 -63 54 -25 c30 -13 54 -31 54 -39 0 -36 -32 -133 -57 -169 -42 -65
-140 -162 -207 -206 -35 -22 -67 -40 -73 -40 -6 0 -31 22 -57 50 -53 56 -54
40 14 183 17 37 34 86 38 109 3 23 0 154 -7 292 l-12 251 -32 63 c-17 35 -39
70 -49 79 -26 23 -22 48 12 77 38 32 83 44 187 52 80 7 82 6 108 -22 25 -27
27 -34 21 -84 -4 -30 -9 -90 -13 -132 l-6 -78 72 0 c111 0 158 16 212 71 60
62 76 117 53 186 -33 100 -106 160 -226 187 -194 44 -391 -11 -490 -137 -60
-75 -63 -87 -37 -143 13 -27 38 -73 57 -103 47 -74 82 -156 82 -192 0 -27 -6
-33 -55 -55 -73 -32 -90 -31 -157 11 -159 100 -213 348 -117 544 100 204 345
318 659 306 58 -2 130 -11 160 -20z m2432 -165 c21 -43 32 -128 24 -174 -10
-52 -52 -92 -106 -100 -70 -10 -118 11 -157 68 -40 59 -41 91 -7 160 43 85 46
87 143 84 l86 -3 17 -35z m-529 -27 c8 -27 20 -70 26 -98 16 -73 41 -421 41
-570 0 -164 20 -244 73 -302 17 -20 31 -23 86 -23 73 0 75 1 114 48 27 33 27
34 27 193 l0 159 -27 11 c-16 6 -43 13 -61 16 -45 8 -50 27 -22 80 38 72 132
151 217 184 20 7 25 5 34 -19 22 -55 39 -134 39 -179 0 -25 7 -120 16 -212
l16 -166 59 -62 c62 -64 76 -106 44 -133 -8 -7 -86 -19 -178 -28 l-164 -15
-55 41 c-30 23 -58 42 -61 42 -4 0 -23 -17 -42 -39 -49 -54 -121 -75 -229 -68
-106 7 -186 26 -186 45 0 7 13 37 28 66 55 100 63 138 52 271 -5 66 -10 165
-10 220 0 55 -6 140 -14 188 -12 82 -15 90 -49 118 -32 27 -57 76 -57 116 0
16 135 121 185 144 66 30 80 26 98 -28z m2301 16 c59 -27 87 -59 93 -107 11
-80 -42 -117 -152 -106 -80 8 -82 1 -18 -67 164 -174 186 -285 77 -392 -43
-42 -89 -66 -179 -92 -162 -47 -170 -51 -180 -79 -7 -21 -6 -29 5 -36 29 -18
104 -23 184 -11 224 31 312 0 379 -133 27 -54 25 -75 -15 -154 -50 -99 -202
-197 -344 -222 -72 -13 -204 -9 -296 8 -91 17 -188 99 -188 159 0 38 37 101
70 118 58 30 81 21 200 -77 25 -20 65 -48 89 -61 42 -24 45 -25 90 -10 125 43
172 86 157 147 -12 50 -44 56 -285 56 l-220 0 -41 38 c-36 35 -40 44 -40 87 0
47 2 51 62 106 l63 58 -56 53 c-43 42 -60 66 -73 109 -16 51 -16 60 -3 105 23
74 43 118 64 135 30 26 122 61 233 89 116 30 112 24 89 112 -14 56 -4 90 42
134 56 54 124 66 193 33z m-2817 -26 c45 -110 63 -234 74 -537 15 -393 10
-366 80 -440 45 -48 59 -71 59 -94 0 -37 -15 -50 -82 -68 -68 -18 -309 -19
-326 -2 -24 24 -14 85 23 142 34 54 35 57 35 158 0 57 -4 132 -9 168 -5 36
-11 137 -12 225 -3 161 -11 195 -44 195 -14 0 -75 58 -75 72 0 22 33 69 78
110 44 39 154 107 175 108 4 0 15 -17 24 -37z m1527 -279 c13 -15 32 -44 42
-65 9 -22 20 -39 23 -39 3 0 13 13 23 29 24 43 149 101 217 101 87 0 154 -57
180 -155 6 -22 15 -91 20 -153 10 -109 11 -114 55 -182 70 -107 70 -105 -16
-202 -104 -116 -199 -162 -254 -124 -21 15 -21 15 -3 118 33 183 21 390 -25
453 -11 16 -18 17 -42 8 -16 -6 -48 -16 -70 -22 -23 -6 -47 -18 -53 -25 -7 -8
-19 -53 -26 -101 -23 -140 -9 -181 109 -320 33 -39 37 -48 25 -59 -31 -30
-115 -47 -255 -53 l-141 -6 -26 35 c-15 19 -27 39 -27 44 0 5 24 33 54 62 68
66 83 112 67 205 -6 35 -11 84 -11 110 0 51 -7 59 -65 67 -36 4 -40 8 -43 37
-2 17 4 55 13 85 15 52 19 56 108 115 50 34 93 62 94 62 1 1 13 -11 27 -25z
m-2079 -147 c87 -25 181 -106 209 -182 39 -102 48 -265 20 -345 -60 -174 -179
-250 -368 -237 -104 7 -146 20 -197 60 -180 139 -197 446 -35 615 90 95 233
129 371 89z m-2337 -330 c-3 -37 -13 -75 -24 -92 -17 -27 -17 -28 1 -41 10 -8
27 -14 36 -14 36 0 47 -27 54 -130 4 -55 11 -103 15 -105 4 -3 27 2 50 10 23
8 59 15 80 15 44 0 105 -23 113 -43 3 -8 9 -56 13 -107 6 -82 10 -98 40 -142
19 -28 34 -52 34 -55 0 -3 -28 -34 -62 -69 -53 -56 -66 -64 -98 -64 -20 0 -45
6 -55 14 -16 12 -18 18 -8 37 7 13 17 56 23 94 10 60 10 78 -4 127 -22 75 -32
81 -81 54 l-40 -23 -3 -76 c-3 -73 -1 -79 33 -129 19 -29 35 -58 35 -64 0 -15
-35 -22 -151 -30 l-96 -7 -7 27 c-5 21 1 40 27 83 30 48 33 60 26 92 -5 20
-11 95 -15 168 -7 131 -7 132 -37 153 -35 27 -33 52 12 129 17 29 31 54 31 57
0 2 -17 2 -37 -1 -21 -2 -59 -7 -84 -10 l-46 -6 4 -202 c5 -217 1 -200 64
-286 l21 -29 -45 -59 c-78 -101 -137 -143 -202 -143 -30 0 -31 9 -11 94 42
184 44 212 20 287 -20 59 -36 69 -67 41 -28 -26 -77 -36 -134 -27 -35 5 -55
17 -93 53 -57 55 -75 109 -66 190 8 65 23 97 68 138 71 68 148 86 331 77 l125
-6 39 30 c58 46 74 52 127 53 l49 0 -5 -63z m723 -348 c19 -6 45 -16 57 -22
53 -25 90 -116 72 -172 -15 -46 -55 -64 -160 -72 -95 -6 -115 -17 -90 -48 16
-20 50 -19 135 5 104 29 115 27 115 -16 0 -85 -132 -154 -238 -125 -102 27
-162 111 -162 225 0 53 6 75 33 127 41 81 81 109 152 109 29 0 67 -5 86 -11z
m840 -336 c69 -64 118 -167 121 -254 l3 -63 -49 -33 c-42 -28 -52 -32 -66 -21
-9 7 -52 40 -96 72 -85 65 -158 106 -189 106 -10 0 -45 -8 -77 -17 -57 -17
-59 -19 -75 -69 -25 -80 -16 -95 79 -141 46 -22 112 -51 148 -63 263 -91 381
-158 430 -242 70 -122 107 -295 89 -410 -22 -139 -136 -284 -278 -354 -127
-63 -176 -75 -312 -76 -181 -3 -316 49 -435 167 -96 96 -124 164 -124 305 0
90 3 107 29 163 48 103 134 174 248 204 34 9 76 13 101 9 57 -8 135 -42 163
-72 l22 -24 -24 -56 c-13 -31 -31 -60 -39 -64 -25 -13 -62 -26 -123 -45 -100
-32 -131 -91 -102 -192 35 -121 141 -179 311 -171 70 3 101 10 145 31 225 106
220 436 -7 550 -27 13 -107 46 -179 72 -300 110 -365 155 -412 285 -34 92 2
204 93 293 83 82 190 119 329 115 57 -2 90 2 115 13 86 40 101 38 161 -18z
m4068 -147 c15 -25 43 -79 61 -121 l33 -76 -22 -22 c-17 -18 -33 -22 -80 -22
-51 0 -66 5 -136 48 -61 38 -84 47 -104 42 -30 -8 -41 -21 -41 -52 0 -34 23
-49 117 -78 49 -15 113 -39 143 -54 68 -32 135 -97 143 -138 10 -51 -21 -201
-46 -221 -60 -49 -169 -82 -272 -82 -51 0 -83 -6 -113 -20 -59 -29 -83 -26
-124 18 -48 50 -85 118 -103 186 -18 69 -18 61 1 80 10 11 34 16 71 16 49 0
69 -7 168 -60 62 -33 121 -60 133 -60 30 0 46 27 46 78 l1 47 -135 46 c-189
64 -220 80 -254 134 -24 39 -28 53 -24 99 6 68 43 142 90 179 34 27 45 30 163
38 84 6 134 14 148 24 12 8 41 15 64 15 40 0 45 -3 72 -44z m-788 -59 c112
-51 179 -153 179 -274 0 -62 -2 -67 -35 -98 -53 -51 -111 -66 -270 -72 -77 -3
-143 -10 -146 -16 -14 -20 12 -64 47 -80 51 -25 100 -21 210 17 115 39 155 48
173 37 7 -5 15 -35 18 -68 5 -56 4 -62 -26 -96 -43 -48 -80 -70 -176 -103 -75
-26 -83 -27 -147 -16 -89 16 -148 44 -213 104 -196 178 -154 541 75 659 88 46
217 48 311 6z m-786 -46 c126 -72 195 -205 195 -375 0 -92 -11 -137 -53 -225
-51 -107 -117 -158 -217 -168 -72 -7 -133 11 -177 51 -32 29 -36 39 -36 80 0
65 22 86 99 92 32 3 69 7 81 10 32 6 72 64 89 126 11 46 11 61 -1 107 -14 53
-37 82 -91 111 -35 20 -129 -5 -172 -45 l-36 -33 -4 -126 c-3 -69 -1 -168 3
-220 l7 -95 49 -56 c33 -37 49 -65 49 -83 0 -56 -165 -225 -244 -252 -56 -18
-78 -10 -95 34 -13 35 -13 48 2 121 20 96 21 232 4 480 l-12 170 -48 25 c-39
20 -49 32 -58 63 -12 45 -10 49 66 120 54 51 135 97 171 97 13 0 36 -14 53
-32 l30 -32 73 36 c97 47 94 46 163 47 49 1 70 -5 110 -28z m-974 -36 c111
-24 165 -65 215 -165 35 -69 53 -155 54 -248 0 -63 -5 -84 -35 -150 -38 -82
-69 -121 -125 -157 -54 -34 -96 -44 -221 -50 l-115 -5 -47 31 c-96 63 -153
154 -183 288 -15 65 -15 84 -4 140 22 114 90 228 164 277 37 23 135 52 183 53
23 1 74 -6 114 -14z m-689 -31 c83 -30 142 -68 157 -102 20 -42 13 -98 -15
-131 -31 -37 -41 -38 -101 -10 -76 35 -209 64 -236 52 -53 -24 -81 -206 -44
-288 39 -87 123 -106 259 -61 159 53 178 48 178 -49 0 -35 -3 -71 -6 -80 -8
-19 -104 -85 -154 -105 -23 -10 -72 -14 -140 -14 -97 0 -110 3 -158 29 -69 37
-126 100 -161 178 -80 174 -55 354 67 480 26 27 56 54 67 60 29 16 177 66 197
67 9 0 50 -12 90 -26z"/>
<path d="M7515 3383 c-48 -12 -92 -82 -81 -127 6 -25 92 -86 121 -86 22 0 166
72 172 86 8 21 -48 122 -71 128 -24 7 -112 6 -141 -1z"/>
<path d="M4290 3178 c-48 -32 -81 -103 -81 -169 0 -128 43 -202 127 -215 105
-15 155 15 180 110 13 49 13 70 3 134 -11 68 -16 81 -49 113 -56 54 -125 64
-180 27z"/>
<path d="M1670 2901 c-79 -12 -106 -42 -112 -126 l-3 -40 65 -6 c36 -3 86 -9
111 -14 l47 -7 -5 88 c-2 49 -6 95 -8 102 -5 13 -23 13 -95 3z"/>
<path d="M6742 1978 c-14 -18 -62 -109 -62 -119 0 -20 165 -3 250 25 46 15 51
45 13 80 -25 24 -35 26 -109 26 -53 0 -85 -4 -92 -12z"/>
<path d="M5051 1878 c-51 -27 -66 -72 -65 -195 1 -87 5 -118 18 -138 62 -94
211 -86 270 15 24 41 28 155 7 210 -29 75 -42 98 -58 105 -37 14 -148 16 -172
3z"/>
</g>
</svg>
